<svg xmlns="http://www.w3.org/2000/svg" xmlns:xlink="http://www.w3.org/1999/xlink" width="125" height="126" viewBox="0 0 125 126">
  <defs>
    <filter id="Type_Holder_BG" x="0" y="0" width="125" height="126" filterUnits="userSpaceOnUse">
      <feOffset dy="14" input="SourceAlpha"/>
      <feGaussianBlur stdDeviation="11" result="blur"/>
      <feFlood flood-opacity="0.22"/>
      <feComposite operator="in" in2="blur"/>
      <feComposite in="SourceGraphic"/>
    </filter>
  </defs>
  <g id="Component_5_1" data-name="Component 5 – 1" transform="translate(33 19)">
    <g id="Type_Holder_BG-2" data-name="Type Holder BG">
      <g transform="matrix(1, 0, 0, 1, -33, -19)" filter="url(#Type_Holder_BG)">
        <rect id="Type_Holder_BG-3" data-name="Type Holder BG" width="59" height="60" rx="29.5" transform="translate(33 19)" fill="#ff1400"/>
      </g>
    </g>
    <g id="Group" transform="translate(-43.448 7)">
      <path id="Path" d="M9.371,2.044A8.771,8.771,0,0,0,9.165,0H0V3.711H5.379a4.907,4.907,0,0,1-2,3.244l-.018.124,2.9,2.3.2.021A9.9,9.9,0,0,0,9.371,2.044Z" transform="translate(73.209 21.178)" fill="rgba(255,255,255,0.85)"/>
      <path id="Path-2" data-name="Path" d="M8.72,8.022A9.176,9.176,0,0,0,15.184,5.6L12.1,3.155a5.679,5.679,0,0,1-3.384,1A5.893,5.893,0,0,1,3.167,0L3.052.01.039,2.4,0,2.511A9.734,9.734,0,0,0,8.72,8.022Z" transform="translate(64.489 24.978)" fill="rgba(255,255,255,0.85)"/>
      <path id="Path-3" data-name="Path" d="M4.208,6.515a6.293,6.293,0,0,1-.325-1.978A6.613,6.613,0,0,1,4.2,2.56l-.005-.133L1.141,0l-.1.049a10.2,10.2,0,0,0,0,8.978Z" transform="translate(63.448 18.462)" fill="rgba(255,255,255,0.85)"/>
      <path id="Path-4" data-name="Path" d="M8.72,3.867a5.343,5.343,0,0,1,3.774,1.489L15.249,2.6A9.258,9.258,0,0,0,8.72,0,9.733,9.733,0,0,0,0,5.511L3.156,8.022A5.917,5.917,0,0,1,8.72,3.867Z" transform="translate(64.489 13)" fill="rgba(255,255,255,0.85)"/>
    </g>
  </g>
</svg>
