<svg id="group_5_" data-name="group (5)" xmlns="http://www.w3.org/2000/svg" width="22.01" height="18.25" viewBox="0 0 22.01 18.25">
  <g id="group_5_2" data-name="group (5)" transform="translate(0 -43.729)" opacity="0.94">
    <g id="Group_30" data-name="Group 30" transform="translate(0 51.723)">
      <g id="Group_29" data-name="Group 29">
        <path id="Path_277" data-name="Path 277" d="M18.786,231.334H16.631a3.215,3.215,0,0,0-.847.114,3.227,3.227,0,0,0-2.875-1.768H9.1a3.227,3.227,0,0,0-2.875,1.768,3.215,3.215,0,0,0-.847-.114H3.224A3.228,3.228,0,0,0,0,234.558V238a1.937,1.937,0,0,0,1.934,1.934H20.075A1.937,1.937,0,0,0,22.01,238v-3.444A3.228,3.228,0,0,0,18.786,231.334ZM5.877,232.9v5.743H1.934A.646.646,0,0,1,1.29,238v-3.444a1.937,1.937,0,0,1,1.934-1.934H5.379a1.929,1.929,0,0,1,.506.068C5.88,232.762,5.877,232.833,5.877,232.9Zm8.967,5.743H7.166V232.9A1.937,1.937,0,0,1,9.1,230.97h3.808a1.937,1.937,0,0,1,1.934,1.934ZM20.72,238a.646.646,0,0,1-.645.645H16.133V232.9c0-.072,0-.143-.008-.213a1.93,1.93,0,0,1,.506-.068h2.154a1.937,1.937,0,0,1,1.934,1.934Z" transform="translate(0 -229.68)" fill="#fff"/>
      </g>
    </g>
    <g id="Group_32" data-name="Group 32" transform="translate(1.436 47.287)">
      <g id="Group_31" data-name="Group 31">
        <path id="Path_278" data-name="Path 278" d="M36.279,126.5a2.865,2.865,0,1,0,2.865,2.865A2.868,2.868,0,0,0,36.279,126.5Zm0,4.44a1.575,1.575,0,1,1,1.575-1.575A1.577,1.577,0,0,1,36.279,130.944Z" transform="translate(-33.414 -126.504)" fill="#fff"/>
      </g>
    </g>
    <g id="Group_34" data-name="Group 34" transform="translate(7.177 43.729)">
      <g id="Group_33" data-name="Group 33">
        <path id="Path_279" data-name="Path 279" d="M170.79,43.729a3.828,3.828,0,1,0,3.828,3.828A3.832,3.832,0,0,0,170.79,43.729Zm0,6.365a2.538,2.538,0,1,1,2.538-2.538A2.541,2.541,0,0,1,170.79,50.094Z" transform="translate(-166.962 -43.729)" fill="#fff"/>
      </g>
    </g>
    <g id="Group_36" data-name="Group 36" transform="translate(14.843 47.287)">
      <g id="Group_35" data-name="Group 35">
        <path id="Path_280" data-name="Path 280" d="M348.159,126.5a2.865,2.865,0,1,0,2.865,2.865A2.868,2.868,0,0,0,348.159,126.5Zm0,4.44a1.575,1.575,0,1,1,1.575-1.575A1.577,1.577,0,0,1,348.159,130.944Z" transform="translate(-345.294 -126.504)" fill="#fff"/>
      </g>
    </g>
  </g>
</svg>
