<svg id="Shape" xmlns="http://www.w3.org/2000/svg" width="17.894" height="22" viewBox="0 0 17.894 22">
  <path id="Shape-2" data-name="Shape" d="M71.105,35c-1.355,0-2.378-1.35-3.393-2.855a14.43,14.43,0,0,1-2.131-5.435,9.128,9.128,0,0,1,.737-5.923,5.391,5.391,0,0,1,4.547-2.826h.057a6,6,0,0,1,2.209.58,4.1,4.1,0,0,0,1.361.4,4.169,4.169,0,0,0,1.315-.4,6.957,6.957,0,0,1,2.543-.656,3.4,3.4,0,0,1,.35.018,5.062,5.062,0,0,1,4.019,2.236l-.008.005a5.087,5.087,0,0,0-2.366,4.285,4.977,4.977,0,0,0,2.942,4.559l.007,0,0,.013A12.518,12.518,0,0,1,81.774,32.2c-.857,1.285-1.829,2.74-3.365,2.77h-.064a3.707,3.707,0,0,1-1.635-.422,4.3,4.3,0,0,0-1.927-.474,4.563,4.563,0,0,0-2.018.488A4.086,4.086,0,0,1,71.182,35Zm2.914-17.111c-.08,0-.16,0-.238-.008a4.149,4.149,0,0,1,1.248-3.275A5.476,5.476,0,0,1,78.5,13a4.364,4.364,0,0,1-1.224,3.381A4.622,4.622,0,0,1,74.019,17.888Z" transform="translate(-65.4 -13)" fill="rgba(255,255,255,0.85)"/>
</svg>
