<svg id="united-states-of-america_1_" data-name="united-states-of-america (1)" xmlns="http://www.w3.org/2000/svg" width="23.232" height="15.488" viewBox="0 0 23.232 15.488">
  <rect id="Rectangle_130" data-name="Rectangle 130" width="23.232" height="15.488" fill="#f0f0f0"/>
  <g id="Group_18" data-name="Group 18" transform="translate(0 1.936)">
    <rect id="Rectangle_131" data-name="Rectangle 131" width="23.232" height="1.936" fill="#d80027"/>
    <rect id="Rectangle_132" data-name="Rectangle 132" width="23.232" height="1.936" transform="translate(0 3.872)" fill="#d80027"/>
    <rect id="Rectangle_133" data-name="Rectangle 133" width="23.232" height="1.936" transform="translate(0 7.744)" fill="#d80027"/>
    <rect id="Rectangle_134" data-name="Rectangle 134" width="23.232" height="1.936" transform="translate(0 11.616)" fill="#d80027"/>
  </g>
  <rect id="Rectangle_135" data-name="Rectangle 135" width="11.616" height="8.34" fill="#2e52b2"/>
  <g id="Group_19" data-name="Group 19" transform="translate(1.18 1.339)">
    <path id="Path_256" data-name="Path 256" d="M83.155,160.624l-.187.576h-.605l.49.356-.187.575.49-.356.489.356-.187-.575.49-.356h-.605Z" transform="translate(-79.806 -158.547)" fill="#f0f0f0"/>
    <path id="Path_257" data-name="Path 257" d="M83.342,206.973l-.187-.576-.187.576h-.605l.49.356-.187.576.49-.356.489.356-.187-.576.49-.356Z" transform="translate(-79.806 -202.243)" fill="#f0f0f0"/>
    <path id="Path_258" data-name="Path 258" d="M26.98,206.973l-.187-.576-.187.576H26l.49.356-.187.576.49-.356.489.356-.187-.576.49-.356Z" transform="translate(-26.001 -202.243)" fill="#f0f0f0"/>
    <path id="Path_259" data-name="Path 259" d="M26.793,160.624l-.187.576H26l.49.356-.187.575.49-.356.489.356-.187-.575.49-.356H26.98Z" transform="translate(-26.001 -158.547)" fill="#f0f0f0"/>
    <path id="Path_260" data-name="Path 260" d="M83.155,114.85l-.187.576h-.605l.49.356-.187.576.49-.356.489.356-.187-.576.49-.356h-.605Z" transform="translate(-79.806 -114.85)" fill="#f0f0f0"/>
    <path id="Path_261" data-name="Path 261" d="M26.793,114.85l-.187.576H26l.49.356-.187.576.49-.356.489.356-.187-.576.49-.356H26.98Z" transform="translate(-26.001 -114.85)" fill="#f0f0f0"/>
    <path id="Path_262" data-name="Path 262" d="M139.517,160.624l-.187.576h-.605l.49.356-.187.575.49-.356.489.356-.187-.575.49-.356H139.7Z" transform="translate(-133.61 -158.547)" fill="#f0f0f0"/>
    <path id="Path_263" data-name="Path 263" d="M139.7,206.973l-.187-.576-.187.576h-.605l.49.356-.187.576.49-.356.489.356-.187-.576.49-.356Z" transform="translate(-133.61 -202.243)" fill="#f0f0f0"/>
    <path id="Path_264" data-name="Path 264" d="M196.067,206.973l-.187-.576-.187.576h-.605l.49.356-.187.576.49-.356.489.356-.187-.576.49-.356Z" transform="translate(-187.416 -202.243)" fill="#f0f0f0"/>
    <path id="Path_265" data-name="Path 265" d="M195.88,160.624l-.187.576h-.605l.49.356-.187.575.49-.356.489.356-.187-.575.49-.356h-.605Z" transform="translate(-187.416 -158.547)" fill="#f0f0f0"/>
    <path id="Path_266" data-name="Path 266" d="M139.517,114.85l-.187.576h-.605l.49.356-.187.576.49-.356.489.356-.187-.576.49-.356H139.7Z" transform="translate(-133.61 -114.85)" fill="#f0f0f0"/>
    <path id="Path_267" data-name="Path 267" d="M195.88,114.85l-.187.576h-.605l.49.356-.187.576.49-.356.489.356-.187-.576.49-.356h-.605Z" transform="translate(-187.416 -114.85)" fill="#f0f0f0"/>
  </g>
</svg>
